<svg width="79" height="78" viewBox="0 0 79 78" fill="none" xmlns="http://www.w3.org/2000/svg">
<path d="M62.734 34.125V43.875H78.334V34.125H62.734ZM54.934 66.3488C58.678 69.81 63.553 74.3925 67.414 78C68.974 75.4163 70.534 72.7837 72.094 70.2C68.233 66.5925 63.358 62.01 59.614 58.5C58.054 61.1325 56.494 63.765 54.934 66.3488ZM72.094 7.8C70.534 5.21625 68.974 2.58375 67.414 0C63.553 3.6075 58.678 8.19 54.934 11.7C56.494 14.2838 58.054 16.9163 59.614 19.5C63.358 15.99 68.233 11.4562 72.094 7.8ZM8.13398 24.375C3.84398 24.375 0.333984 28.7625 0.333984 34.125V43.875C0.333984 49.2375 3.84398 53.625 8.13398 53.625H12.034V73.125H19.834V53.625H23.734L43.234 68.25V9.75L23.734 24.375H8.13398ZM52.984 39C52.984 32.5163 50.722 26.6662 47.134 22.6687V55.2825C50.722 51.3338 52.984 45.4837 52.984 39Z" fill="#F9F5E8"/>
</svg>
