<svg width="79" height="78" viewBox="0 0 79 78" fill="none" xmlns="http://www.w3.org/2000/svg">
<path d="M77.4089 15.8644H60.9144C62.1676 14.5804 63.0279 12.9328 63.3852 11.1323C63.7425 9.33174 63.5806 7.46014 62.9202 5.75681C62.2598 4.05349 61.131 2.59587 59.678 1.57037C58.2251 0.544875 56.514 -0.00188903 54.7638 4.90367e-06C46.2001 4.90367e-06 41.6396 8.22967 39.667 13.1952C37.6943 8.22967 33.1339 4.90367e-06 24.5702 4.90367e-06C22.82 -0.00188903 21.1089 0.544875 19.656 1.57037C18.203 2.59587 17.0741 4.05349 16.4138 5.75681C15.7534 7.46014 15.5915 9.33174 15.9488 11.1323C16.3061 12.9328 17.1663 14.5804 18.4195 15.8644H1.92506C1.5914 15.8644 1.2714 16.0037 1.03547 16.2516C0.799538 16.4996 0.666992 16.8358 0.666992 17.1864V27.7627C0.666992 28.1133 0.799538 28.4496 1.03547 28.6975C1.2714 28.9455 1.5914 29.0848 1.92506 29.0848H77.4089C77.7426 29.0848 78.0626 28.9455 78.2985 28.6975C78.5344 28.4496 78.667 28.1133 78.667 27.7627V17.1864C78.667 16.8358 78.5344 16.4996 78.2985 16.2516C78.0626 16.0037 77.7426 15.8644 77.4089 15.8644ZM54.7638 2.64407C56.4321 2.64407 58.032 3.3405 59.2117 4.58015C60.3914 5.81979 61.0541 7.50112 61.0541 9.25424C61.0541 11.0074 60.3914 12.6887 59.2117 13.9283C58.032 15.168 56.4321 15.8644 54.7638 15.8644H41.3918C42.7153 11.9869 46.7386 2.64407 54.7638 2.64407ZM18.2799 9.25424C18.2819 7.50176 18.9453 5.82166 20.1245 4.58247C21.3037 3.34327 22.9025 2.64617 24.5702 2.64407C32.5765 2.64407 36.6099 11.9856 37.9384 15.8644H24.5702C22.9025 15.8623 21.3037 15.1652 20.1245 13.926C18.9453 12.6868 18.2819 11.0067 18.2799 9.25424Z" fill="#F9F5E8"/>
<path d="M71.1186 31.7288H44.6992V77.9999H63.5702C65.5721 77.9999 67.4921 77.1642 68.9077 75.6767C70.3233 74.1891 71.1186 72.1715 71.1186 70.0677V31.7288Z" fill="#F9F5E8"/>
<path d="M34.6352 31.7288H8.21582V70.0677C8.21582 72.1715 9.01109 74.1891 10.4267 75.6767C11.8423 77.1642 13.7623 77.9999 15.7642 77.9999H34.6352V31.7288Z" fill="#F9F5E8"/>
</svg>
