<svg width="78" height="78" viewBox="0 0 78 78" fill="none" xmlns="http://www.w3.org/2000/svg">
<path d="M53.2683 7.8C53.2683 3.471 56.6546 0 60.878 0C65.1015 0 68.4878 3.471 68.4878 7.8C68.4878 12.129 65.1015 15.6 60.878 15.6C56.6546 15.6 53.2683 12.129 53.2683 7.8ZM68.4878 78V54.6H78L68.3356 24.843C67.8266 23.2897 66.8555 21.9389 65.5588 20.9805C64.2621 20.0222 62.705 19.5044 61.1063 19.5H60.6498C59.0497 19.4985 57.49 20.014 56.1922 20.9732C54.8943 21.9324 53.9245 23.2865 53.4205 24.843L50.1483 34.905C54.2576 37.245 57.0732 41.652 57.0732 46.8V78H68.4878ZM39.9512 37.05C43.1093 37.05 45.6585 34.437 45.6585 31.2C45.6585 27.963 43.1093 25.35 39.9512 25.35C36.7932 25.35 34.2439 27.963 34.2439 31.2C34.2439 34.437 36.7932 37.05 39.9512 37.05ZM13.3171 15.6C17.5405 15.6 20.9268 12.129 20.9268 7.8C20.9268 3.471 17.5405 0 13.3171 0C9.09366 0 5.70732 3.471 5.70732 7.8C5.70732 12.129 9.09366 15.6 13.3171 15.6ZM20.9268 78V50.7H26.6341V27.3C26.6341 23.01 23.2098 19.5 19.0244 19.5H7.60976C3.42439 19.5 0 23.01 0 27.3V50.7H5.70732V78H20.9268ZM45.6585 78V62.4H49.4634V46.8C49.4634 43.602 46.8761 40.95 43.7561 40.95H36.1463C33.0263 40.95 30.439 43.602 30.439 46.8V62.4H34.2439V78H45.6585Z" fill="#F9F5E8"/>
</svg>
