<svg width="31" height="31" viewBox="0 0 31 31" fill="none" xmlns="http://www.w3.org/2000/svg">
<path d="M15.5035 7.55031C11.105 7.55031 7.55722 11.0981 7.55722 15.4965C7.55722 19.895 11.105 23.4428 15.5035 23.4428C19.9019 23.4428 23.4497 19.895 23.4497 15.4965C23.4497 11.0981 19.9019 7.55031 15.5035 7.55031ZM15.5035 20.6626C12.6611 20.6626 10.3374 18.3458 10.3374 15.4965C10.3374 12.6472 12.6542 10.3305 15.5035 10.3305C18.3528 10.3305 20.6695 12.6472 20.6695 15.4965C20.6695 18.3458 18.3458 20.6626 15.5035 20.6626ZM25.6282 7.22527C25.6282 8.25572 24.7983 9.0787 23.7747 9.0787C22.7443 9.0787 21.9213 8.2488 21.9213 7.22527C21.9213 6.20173 22.7512 5.37183 23.7747 5.37183C24.7983 5.37183 25.6282 6.20173 25.6282 7.22527ZM30.8911 9.10636C30.7735 6.62359 30.2064 4.42437 28.3876 2.61244C26.5756 0.800502 24.3764 0.233408 21.8936 0.108924C19.3348 -0.0363079 11.6652 -0.0363079 9.10636 0.108924C6.63051 0.226492 4.43129 0.793586 2.61244 2.60552C0.793586 4.41746 0.233408 6.61668 0.108924 9.09944C-0.0363079 11.6583 -0.0363079 19.3279 0.108924 21.8867C0.226492 24.3695 0.793586 26.5687 2.61244 28.3806C4.43129 30.1926 6.62359 30.7597 9.10636 30.8842C11.6652 31.0294 19.3348 31.0294 21.8936 30.8842C24.3764 30.7666 26.5756 30.1995 28.3876 28.3806C30.1995 26.5687 30.7666 24.3695 30.8911 21.8867C31.0363 19.3279 31.0363 11.6652 30.8911 9.10636ZM27.5853 24.6323C27.0459 25.9878 26.0016 27.0321 24.6392 27.5784C22.5991 28.3876 17.758 28.2008 15.5035 28.2008C13.2489 28.2008 8.40095 28.3806 6.36771 27.5784C5.01221 27.039 3.96793 25.9947 3.42158 24.6323C2.61244 22.5921 2.79916 17.7511 2.79916 15.4965C2.79916 13.242 2.61935 8.39403 3.42158 6.36079C3.96102 5.0053 5.0053 3.96101 6.36771 3.41467C8.40786 2.60552 13.2489 2.79225 15.5035 2.79225C17.758 2.79225 22.606 2.61244 24.6392 3.41467C25.9947 3.9541 27.039 4.99838 27.5853 6.36079C28.3945 8.40095 28.2078 13.242 28.2078 15.4965C28.2078 17.7511 28.3945 22.5991 27.5853 24.6323Z" fill="white"/>
</svg>
