<svg width="368" height="79" viewBox="0 0 368 79" fill="none" xmlns="http://www.w3.org/2000/svg">
<path d="M123.305 19.8071H121.363C119.467 19.8071 118.634 20.3621 117.386 22.443L107.027 39.2296L102.726 22.628C102.218 20.6395 101.663 19.8534 99.4893 19.8534H97.8707C95.7435 19.8534 94.4024 21.102 93.9862 23.3217L89.1769 50.3281C88.8069 52.3628 89.7318 53.4264 91.4891 53.4264H92.229C94.0787 53.4264 94.9111 52.5015 95.2348 50.5131L99.1193 28.686L102.865 43.299C103.189 44.7788 103.466 45.7499 106.287 45.7499C108.646 45.7499 109.2 44.9176 110.033 43.5765L119.189 28.5472L115.305 50.3743C114.935 52.4553 115.86 53.4727 117.571 53.4727H118.357C120.206 53.4727 121.039 52.5016 121.363 50.5593L126.126 23.3679C126.542 21.1944 125.478 19.8071 123.305 19.8071Z" fill="black"/>
<path d="M152.207 39.1372C151.976 32.5706 147.537 27.7612 140.045 27.7612C131.49 27.7612 126.264 34.7441 126.496 42.3743C126.773 49.3571 131.582 53.8428 138.658 53.8428C147.444 53.7965 152.438 46.7675 152.207 39.1372ZM138.704 49.0334C134.681 49.0334 132.137 46.12 131.999 42.1431C131.814 37.01 135.189 32.4781 139.999 32.4781C143.698 32.4781 146.612 35.3915 146.75 39.4147C146.889 44.8252 143.513 49.0334 138.704 49.0334Z" fill="black"/>
<path d="M171.306 27.7612C167.745 27.7612 164.924 29.5185 163.028 32.4781C163.213 29.1023 161.364 28.1312 159.468 28.1312C158.589 28.1312 157.895 28.3624 157.849 28.4549L153.965 50.4207C153.595 52.6867 154.843 53.3341 156.508 53.3341H157.202C159.005 53.3341 159.745 52.5942 160.115 50.4207L162.427 37.2412C164.092 34.3279 165.942 32.9405 168.809 32.9405C171.676 32.9405 173.387 34.6516 173.433 37.4724C173.479 38.2123 173.294 39.1372 173.156 40.2471L171.352 50.4207C170.982 52.6867 172.277 53.3341 173.896 53.3341H174.589C176.393 53.3341 177.133 52.5942 177.503 50.4207L179.491 39.1835C179.722 37.9349 179.861 36.825 179.815 35.8077C179.676 31.0908 176.532 27.7612 171.306 27.7612Z" fill="black"/>
<path d="M280.719 27.7612C277.806 27.7612 275.632 29.426 274.152 32.4781C274.384 29.1023 272.534 28.1312 270.638 28.1312C269.713 28.1312 269.066 28.3624 269.019 28.4549L265.089 50.4207C264.719 52.6867 266.198 53.3341 267.863 53.3341H268.557C270.129 53.3341 270.869 52.5942 271.285 50.4207L272.58 43.0679C273.551 37.3337 275.678 33.3567 279.1 33.3567C280.765 33.3567 281.829 34.0504 282.522 34.8365C282.615 34.929 285.205 33.9117 285.112 30.8596C284.973 28.9636 283.077 27.7612 280.719 27.7612Z" fill="black"/>
<path d="M310.592 28.131C308.188 28.131 306.847 29.2871 306.061 32.3392C304.534 29.4721 301.39 27.7148 297.737 27.7148C289.968 27.7148 284.557 34.6514 284.557 42.5129C284.557 48.987 288.534 53.7964 294.823 53.7964C298.662 53.7964 301.621 52.2241 303.517 49.0333C303.24 52.3628 303.887 53.3802 306.292 53.3802C308.419 53.3802 309.113 52.594 309.344 50.2356C309.621 45.8887 311.101 38.8134 312.812 28.8709C312.812 28.686 311.841 28.131 310.592 28.131ZM296.164 49.0333C292.372 49.0333 290.199 46.6286 290.199 42.3742C290.199 37.3798 293.112 32.3855 298.523 32.3855C302.916 32.3855 304.766 35.6225 304.766 39.1833C304.766 43.669 301.714 49.0333 296.164 49.0333Z" fill="black"/>
<path d="M347.495 27.7612C343.241 27.7612 340.42 29.9347 338.431 33.1255C337.46 29.7497 334.547 27.7612 330.847 27.7612C327.61 27.7612 324.789 29.2873 322.847 32.2006C322.94 29.1023 321.136 28.1774 319.286 28.1774C318.362 28.1774 317.714 28.4086 317.668 28.5011L313.783 50.467C313.413 52.7329 314.662 53.3803 316.327 53.3803H317.02C318.593 53.3803 319.564 52.7329 319.934 50.467L322.338 36.825C324.096 34.0966 325.761 32.9405 328.35 32.9405C330.894 32.9405 332.466 34.8365 332.466 37.7037C332.466 38.1661 332.42 38.6748 332.327 39.2297L330.385 50.467C330.015 52.7329 331.31 53.3803 332.928 53.3803H333.576C335.148 53.3803 336.165 52.6867 336.535 50.467L338.94 36.825C340.697 34.0966 342.362 32.9405 344.952 32.9405C347.403 32.9405 349.206 34.4203 349.206 37.4724C349.206 38.2123 349.067 39.1372 348.882 40.2471L347.079 50.4207C346.709 52.6867 347.958 53.3341 349.622 53.3341H350.316C352.12 53.3341 352.859 52.5942 353.229 50.4207L355.218 39.1835C355.449 37.9349 355.542 36.825 355.542 35.8077C355.588 30.8596 352.258 27.7612 347.495 27.7612Z" fill="black"/>
<path d="M207.885 38.7672C207.885 35.3452 207.191 33.0792 205.665 31.0907C204 28.9635 200.902 27.6687 197.295 27.6687C186.381 27.6687 182.451 35.7151 182.451 42.698C182.451 49.3571 187.26 53.7965 194.659 53.7965C202.058 53.7965 206.22 50.5132 206.22 47.8773C206.22 46.12 204.971 45.5188 203.538 45.3801C201.596 47.8773 198.914 49.0796 195.26 49.0796C192.023 49.0796 188.185 47.831 187.907 42.0505H204.694C206.497 42.0968 207.885 41.0794 207.885 38.7672ZM202.474 37.9811H188.462C189.803 34.4203 192.902 32.2006 196.833 32.2006C198.821 32.2006 200.347 32.7555 201.364 33.8654C202.243 34.8827 202.567 36.2701 202.474 37.9811Z" fill="black"/>
<path d="M260.002 35.3913H250.013C248.811 35.3913 248.256 35.6688 247.886 36.0388C247.285 36.6862 246.961 38.166 246.961 38.8134C247.007 39.8308 247.886 40.4319 249.504 40.4319H256.58C255.609 45.38 252.464 48.8021 247.054 48.8021C241.366 48.8021 237.574 45.195 237.342 39.0446C237.065 31.3219 242.198 24.9402 249.458 24.9402C253.713 24.9402 257.042 27.2062 258.383 30.212C258.568 30.4433 262.499 30.4433 262.36 27.0674C262.314 25.8651 261.62 24.4316 260.326 23.2292C258.245 21.1482 254.314 19.3447 249.088 19.3447C241.782 19.3447 236.001 23.3679 232.995 29.1947C232.995 29.1484 232.949 29.1484 232.949 29.1484C232.348 28.3623 231.377 27.9923 230.406 27.9923C228.787 27.9923 227.724 28.501 226.151 31.2756L218.382 44.9176L215.469 31.3219C214.914 28.7785 213.989 27.9923 212.371 27.9923C210.475 27.9923 208.949 29.3796 208.995 29.7033L214.544 51.6692L208.81 61.1029C208.209 62.1203 208.162 63.4614 210.336 63.4614H211.538C213.804 63.4614 214.544 62.074 215.654 60.178L231.284 33.7266C230.822 35.5763 230.591 37.5648 230.683 39.5995C230.961 48.4784 236.972 53.8426 245.759 53.8426C249.921 53.8426 253.25 52.2703 255.1 49.8657C254.961 52.4553 256.349 53.4727 258.198 53.4727C259.216 53.4727 259.956 53.149 259.956 52.964L262.499 38.7209C262.915 36.5012 262.083 35.3913 260.002 35.3913Z" fill="black"/>
<path d="M362.154 50.6519C362.339 50.9756 362.478 51.1143 362.709 51.1143C362.709 51.1143 362.756 51.4843 362.293 51.4843C362.016 51.4843 361.831 51.3456 361.553 50.8369L361.045 49.912H360.582L360.351 51.2068C360.305 51.3918 360.212 51.4843 360.027 51.4843H359.935C359.75 51.4843 359.657 51.3918 359.703 51.1606L360.351 47.831C360.397 47.5998 360.536 47.5073 360.767 47.5073H361.738C362.617 47.5073 363.125 47.8773 363.125 48.5247C363.125 49.3108 362.617 49.8195 361.738 49.8658L362.154 50.6519ZM361.553 49.4033C362.154 49.4033 362.478 49.0796 362.432 48.5709C362.432 48.201 362.154 47.9698 361.646 47.9698H360.952L360.675 49.3571H361.553V49.4033Z" fill="black"/>
<path d="M361.414 46.4436C363.218 46.4436 364.651 47.9234 364.651 49.6807C364.651 51.4842 363.172 52.9177 361.414 52.9177C359.611 52.9177 358.177 51.4379 358.177 49.6807C358.131 47.9234 359.611 46.4436 361.414 46.4436ZM361.414 45.8887C359.333 45.8887 357.622 47.5997 357.622 49.6807C357.622 51.7616 359.333 53.4727 361.414 53.4727C363.495 53.4727 365.206 51.7616 365.206 49.6807C365.206 47.5997 363.495 45.8887 361.414 45.8887Z" fill="black"/>
<path d="M39.511 76.3171C59.7641 76.3171 76.1824 59.8988 76.1824 39.6457C76.1824 19.3927 59.7641 2.97437 39.511 2.97437C19.2579 2.97437 2.8396 19.3927 2.8396 39.6457C2.8396 59.8988 19.2579 76.3171 39.511 76.3171Z" fill="white"/>
<path d="M76.1824 39.6457C76.1824 59.9005 59.7658 76.3171 39.511 76.3171C19.2562 76.3171 2.8396 59.9005 2.8396 39.6457C2.8396 34.0502 4.08818 28.7784 6.30789 24.0616C4.82809 27.8073 4.13443 31.5531 4.13443 35.0214C4.13443 51.6229 17.5452 54.0276 23.2332 53.9813C31.927 53.8888 42.0544 49.6344 50.6095 41.773C50.6095 41.773 49.4997 47.9696 49.176 49.8656C48.8523 51.7154 50.0546 53.3339 51.9044 53.3339H52.6443C54.5403 53.3339 55.9276 51.7616 56.2513 49.8656L59.3496 32.5704C59.7196 30.6282 58.471 29.1021 56.5287 29.1021H39.2335C37.2913 29.1021 35.534 30.1195 35.2103 32.0618C35.2103 32.1542 35.0716 32.7092 35.0716 32.8479C34.7941 34.6976 36.089 36.085 37.9387 36.085H46.9563C46.8175 36.2237 46.6788 36.3624 46.5401 36.5012C40.2971 42.3741 32.5744 45.6112 26.1928 45.6112C19.8573 45.6112 12.7358 41.588 12.7358 32.5704C12.7358 13.8417 30.3085 2.97437 39.511 2.97437C59.7196 2.97437 76.1824 19.3909 76.1824 39.6457Z" fill="#DF2127"/>
</svg>
