<svg width="78" height="78" viewBox="0 0 78 78" fill="none" xmlns="http://www.w3.org/2000/svg">
<path d="M13.2096 20.6939C17.7259 20.6939 21.3871 16.0614 21.3871 10.3469C21.3871 4.63248 17.7259 0 13.2096 0C8.69338 0 5.03223 4.63248 5.03223 10.3469C5.03223 16.0614 8.69338 20.6939 13.2096 20.6939Z" fill="#F9F5E8"/>
<path d="M64.7907 20.6939C69.307 20.6939 72.9681 16.0614 72.9681 10.3469C72.9681 4.63248 69.307 0 64.7907 0C60.2744 0 56.6133 4.63248 56.6133 10.3469C56.6133 16.0614 60.2744 20.6939 64.7907 20.6939Z" fill="#F9F5E8"/>
<path d="M37.2915 49.8055C32.8962 46.7906 29.1254 42.5054 26.286 37.2984C22.8288 31.4818 19.2547 25.4695 11.3226 25.4695C8.32067 25.4737 5.44266 26.9844 3.31998 29.6703C1.19731 32.3561 0.00332991 35.9977 0 39.796V76.4083C0 76.8304 0.132546 77.2353 0.368479 77.5339C0.604411 77.8324 0.924405 78.0001 1.25806 78.0001H21.3871C21.7208 78.0001 22.0408 77.8324 22.2767 77.5339C22.5126 77.2353 22.6452 76.8304 22.6452 76.4083V46.5215C26.1209 50.6147 30.0397 54.0606 34.2835 56.7554C34.7631 57.1011 35.3031 57.2904 35.8548 57.3062C36.5594 57.3083 37.244 57.0101 37.7983 56.4597C38.3526 55.9094 38.7442 55.1389 38.9102 54.2725C39.0761 53.4061 39.0067 52.4942 38.7131 51.6838C38.4194 50.8735 37.9187 50.2118 37.2915 49.8055Z" fill="#F9F5E8"/>
<path d="M66.677 25.4695C58.7511 25.4695 55.1707 31.4818 51.7135 37.2984C49.1047 42.0204 45.7458 46.0016 41.8516 48.9873C42.4268 50.2428 42.7435 51.661 42.7728 53.1118C42.802 54.5625 42.5428 55.9993 42.0189 57.2903C42.0617 57.2903 42.1032 57.3062 42.1447 57.3062C42.6965 57.2904 43.2365 57.1011 43.716 56.7554C47.9598 54.0606 51.8786 50.6147 55.3544 46.5215V76.4083C55.3544 76.8304 55.4869 77.2353 55.7228 77.5339C55.9588 77.8324 56.2788 78.0001 56.6124 78.0001H76.7415C77.0751 78.0001 77.3951 77.8324 77.6311 77.5339C77.867 77.2353 77.9995 76.8304 77.9995 76.4083V39.796C77.9962 35.9977 76.8022 32.3561 74.6795 29.6703C72.5569 26.9844 69.6789 25.4737 66.677 25.4695Z" fill="#F9F5E8"/>
</svg>
