<svg width="33" height="33" viewBox="0 0 33 33" fill="none" xmlns="http://www.w3.org/2000/svg">
<path d="M29.3036 0H3.51643C1.57507 0 0 1.57507 0 3.51643V29.3036C0 31.2449 1.57507 32.82 3.51643 32.82H29.3036C31.2449 32.82 32.82 31.2449 32.82 29.3036V3.51643C32.82 1.57507 31.2449 0 29.3036 0ZM25.7212 11.6335C25.7359 11.8386 25.7359 12.0511 25.7359 12.2562C25.7359 18.6078 20.9008 25.9263 12.0657 25.9263C9.34051 25.9263 6.81308 25.1351 4.68857 23.7725C5.07684 23.8165 5.45046 23.8311 5.84606 23.8311C8.09511 23.8311 10.161 23.0692 11.8093 21.7799C9.69948 21.7359 7.92662 20.3513 7.31857 18.4466C8.05848 18.5565 8.72514 18.5565 9.48703 18.3587C7.28926 17.9118 5.64094 15.9778 5.64094 13.6408V13.5822C6.27829 13.9412 7.02553 14.161 7.8094 14.1903C7.15038 13.7519 6.61014 13.1572 6.23688 12.4593C5.86361 11.7613 5.66895 10.9818 5.67024 10.1903C5.67024 9.29656 5.90467 8.47606 6.32225 7.76545C8.68851 10.6812 12.2416 12.5859 16.2269 12.791C15.5455 9.53099 17.9851 6.88634 20.9154 6.88634C22.3 6.88634 23.5454 7.46508 24.4245 8.4028C25.5088 8.19767 26.549 7.79475 27.4721 7.24531C27.1131 8.35884 26.3586 9.29656 25.3622 9.88996C26.3293 9.78739 27.267 9.51634 28.1314 9.14271C27.4794 10.1024 26.6589 10.9522 25.7212 11.6335Z" fill="white"/>
</svg>
